<?xml version="1.0" standalone="no"?>
<!DOCTYPE svg PUBLIC "-//W3C//DTD SVG 20010904//EN"
 "http://www.w3.org/TR/2001/REC-SVG-20010904/DTD/svg10.dtd">
<svg version="1.0" xmlns="http://www.w3.org/2000/svg"
 width="200.000000pt" height="200.000000pt" viewBox="0 0 200.000000 200.000000"
 preserveAspectRatio="xMidYMid meet">
<metadata>
Created by potrace 1.14, written by Peter Selinger 2001-2017
</metadata>
<g transform="translate(0.000000,200.000000) scale(0.100000,-0.100000)"
fill="#000000" stroke="none">
<path d="M1000 1603 c0 -19 -70 -41 -106 -33 -27 6 -46 3 -79 -11 -24 -11 -47
-24 -50 -29 -3 -6 -14 -10 -23 -10 -18 0 -112 -79 -112 -94 0 -4 -11 -22 -25
-38 -14 -16 -23 -34 -19 -39 3 -5 -2 -19 -10 -31 -9 -12 -16 -32 -15 -43 0
-11 3 -14 6 -7 2 6 9 12 14 12 5 0 0 -18 -11 -40 -14 -28 -21 -60 -21 -108 0
-59 5 -78 46 -166 26 -55 52 -124 58 -153 6 -29 14 -52 18 -51 157 65 174 88
139 179 -35 93 -20 142 46 155 42 8 74 -7 96 -44 14 -24 14 -41 1 -159 -20
-178 -12 -206 93 -311 41 -41 83 -91 94 -111 18 -34 106 -119 156 -151 21 -13
25 -12 47 12 36 39 61 110 54 158 -3 22 -1 42 4 45 4 3 4 17 -1 30 -5 14 -7
31 -4 39 3 8 1 17 -5 21 -6 3 -11 14 -11 24 0 9 -6 26 -14 36 -14 19 -15 19
-26 -7 -23 -50 -74 -43 -82 12 -6 37 12 54 69 69 43 12 59 34 47 64 -7 19 -22
14 -92 -30 -52 -33 -53 -33 -85 -17 -18 9 -58 35 -90 56 -77 53 -92 86 -76
171 7 34 18 74 25 88 13 25 74 85 109 104 17 10 16 13 -9 53 -14 23 -26 46
-26 52 0 23 -61 33 -215 34 -104 1 -141 3 -105 7 98 12 202 10 344 -8 l139
-17 29 34 c31 38 35 62 13 80 -8 7 -15 23 -15 36 0 15 -6 24 -15 24 -9 0 -18
7 -21 15 -8 20 -71 58 -87 52 -7 -3 -21 1 -32 9 -10 7 -28 11 -41 8 -12 -3
-25 -1 -28 4 -3 6 -15 8 -25 5 -10 -3 -31 3 -45 12 -14 10 -26 13 -26 8z
m-285 -288 c-59 -18 -111 -28 -103 -20 8 9 104 33 128 33 8 0 -3 -6 -25 -13z"/>
<path d="M1271 1107 c-35 -17 -41 -40 -8 -28 16 6 38 7 59 0 18 -5 34 -9 35
-9 2 0 3 9 3 19 0 31 -46 41 -89 18z"/>
</g>
</svg>
